<?xml version="1.0" encoding="utf-8"?>
<!-- Generator: Adobe Illustrator 23.0.3, SVG Export Plug-In . SVG Version: 6.00 Build 0)  -->
<svg version="1.1" id="Layer_1" xmlns="http://www.w3.org/2000/svg" xmlns:xlink="http://www.w3.org/1999/xlink" x="0px" y="0px"
	 viewBox="10 145 592 470" xml:space="preserve">
<style type="text/css">
	.st0{fill:#ffffff;}
	.st1{fill:#ffffff;}
	.st2{fill:#ffffff;}
	.st3{fill:#ffffff;}
	.st4{fill:#ffffff;}
	.st5{fill:#ffffff;}
	.st6{fill:#ffffff;}
	.st7{fill:#ffffff;}
	.st8{fill:#ffffff;}
	.st9{fill:#ffffff;}
	.st10{fill:#ffffff;}
	.st11{fill:#ffffff;}
	.st12{fill:#ffffff;}
	.st13{fill:#ffffff;}
	.st14{fill:#ffffff;}
</style>
<path class="st0" d="M361.77,152.38c0.12,17.96,0.26,35.92,0.34,53.88c0.01,1.23,0.56,1.73,1.49,2.26
	c31.39,17.92,62.78,35.87,94.16,53.82c0.51,0.29,1.2,0.38,1.46,1.09c-0.56,0.46-1.2,0.24-1.78,0.24
	c-78.23-0.07-156.46-0.15-234.69-0.24c-0.65,0-1.39,0.29-1.92-0.38c0.12-0.61,0.14-1.25,0.37-1.81c3.6-9.02,7.27-18.01,10.84-27.05
	c1.36-3.45,2.96-6.81,3.95-10.39c0.24-0.43,0.52-0.84,0.7-1.3c1.91-4.8,3.78-9.6,5.7-14.4c4.87-12.16,9.74-24.32,14.63-36.47
	c2.49-6.19,5.02-12.36,7.53-18.54c9.77,5.38,19.54,10.75,29.31,16.14c7.31,4.04,14.61,8.1,21.9,12.18c1.2,0.68,1.74,0.7,1.63-0.94
	c-0.16-2.43-0.19-4.87-0.24-7.3c-0.15-6.93,0.03-13.87-0.44-20.79C331.73,152.38,346.75,152.38,361.77,152.38z"/>
<path class="st1" d="M575.58,608.33c-2.52-0.19-4.94-0.74-7.19-1.93c-3.37-1.78-5.11-4.64-5.55-8.38c-0.11-0.92,0.17-1.22,1.09-1.21
	c3.25,0.04,6.51,0.02,9.76,0.01c0.53,0,0.83,0.12,1.1,0.71c0.97,2.06,2.48,2.72,5.1,2.47c2.27-0.22,3.93-1.29,4.55-3.55
	c0.79-2.91,0.73-5.89,0.69-9.4c-1.95,2.87-4.1,4.77-7.18,5.23c-8.65,1.29-12.55-2.48-14.41-8.39c-0.95-3-1.34-6.11-1.51-9.23
	c-0.47-8.5-0.73-17.01,1.03-25.42c0.15-0.73,0.36-1.45,0.59-2.17c1.45-4.67,4.27-7.86,9.36-8.56c5.6-0.77,9.31,0.94,12.74,6.21
	c0-1.49,0.08-2.5-0.02-3.49c-0.13-1.29,0.41-1.57,1.61-1.56c3.18,0.04,6.37-0.05,9.56-0.09c0,18.78,0,37.56,0,56.33
	c-0.64,0.39-0.47,1.11-0.59,1.67c-1.07,4.78-3.99,7.88-8.53,9.51c-2.05,0.74-4.18,1.15-6.37,1.26
	C579.46,608.35,577.52,608.34,575.58,608.33z M585.51,564.68c-0.01-3.87,0.08-7.76-0.66-11.58c-0.59-3.05-2.13-4.59-4.67-4.85
	c-3.35-0.34-5.22,1.15-5.71,5.19c-0.96,7.96-0.89,15.96-0.06,23.94c0.08,0.73,0.31,1.47,0.58,2.16c0.8,2.08,2.07,2.94,4.28,2.95
	c3.14,0.02,4.87-1.76,5.54-5.66C585.5,572.81,585.3,568.74,585.51,564.68z"/>
<path class="st2" d="M316.7,152.38c0.47,6.92,0.29,13.86,0.44,20.79c0.05,2.43,0.08,4.87,0.24,7.3c0.11,1.64-0.43,1.61-1.63,0.94
	c-7.29-4.08-14.59-8.14-21.9-12.18c-9.76-5.39-19.54-10.76-29.31-16.14c-0.05-0.12-0.09-0.24-0.14-0.36
	c0.03-0.12,0.06-0.24,0.09-0.35C281.9,152.38,299.3,152.38,316.7,152.38z"/>
<path class="st2" d="M581.39,608.36c2.18-0.11,4.32-0.52,6.37-1.26c4.54-1.64,7.45-4.74,8.53-9.51c0.12-0.56-0.05-1.28,0.59-1.67
	c0,3.94-0.03,7.89,0.02,11.83c0.01,0.81-0.16,0.97-0.96,0.96c-4.82-0.05-9.64-0.02-14.46-0.02
	C581.4,608.59,581.37,608.48,581.39,608.36z"/>
<path class="st3" d="M264.5,152.38c-0.03,0.12-0.06,0.24-0.09,0.35c-36.49,0-72.99,0.01-109.48,0.01c-0.03-0.12-0.06-0.24-0.09-0.37
	C191.39,152.38,227.94,152.38,264.5,152.38z"/>
<path class="st0" d="M581.39,608.36c-0.02,0.12,0.01,0.23,0.08,0.33c-2,0-4.01,0-6.01,0c0.04-0.12,0.07-0.24,0.11-0.35
	C577.52,608.34,579.46,608.35,581.39,608.36z"/>
<path class="st4" d="M341.9,339.78c3.08-9.9,8.83-17.84,17.43-23.67c8.16-5.54,17.35-8.2,27.02-9.31
	c11.76-1.36,23.49-1.07,35.08,1.45c10.72,2.34,20.2,6.91,27.05,15.89c5.14,6.73,7.65,14.53,9.03,22.76
	c0.8,4.82,1.16,9.68,1.21,14.57c0.01,1.17-0.21,1.62-1.51,1.61c-14.02-0.05-28.03-0.05-42.05,0c-1.24,0-1.6-0.35-1.56-1.58
	c0.15-4.45-0.04-8.88-1.53-13.15c-2.29-6.56-6.98-9.99-13.12-9.63c-7.69,0.45-13.08,5.84-13.9,13.68
	c-1.1,10.52,4.2,17.32,12.72,22.29c7.15,4.17,14.92,6.98,22.54,10.12c8.4,3.46,16.59,7.28,23.84,12.87
	c11.68,9.01,17.73,21.04,19.06,35.59c0.89,9.73,0.42,19.37-2.3,28.81c-1.51,5.25-3.66,10.22-7.06,14.57
	c-0.48-0.48-1.01-0.92-1.43-1.44c-2.8-3.49-5.48-7.07-8.37-10.47c-3.14-3.69-6.04-7.58-9.14-11.3c-1.3-1.57-2.44-3.31-3.75-4.79
	c-4.51-5.13-8.79-10.45-13.1-15.74c-1.53-1.88-2.84-3.99-4.5-5.68c-1.79-1.82-3.45-3.77-4.98-5.73c-3.89-5.01-8.17-9.7-11.96-14.79
	c-2.09-2.8-4.58-5.25-6.71-8c-2.93-3.78-5.79-7.63-8.9-11.26c-3.5-4.1-6.76-8.39-10.31-12.45c-4.56-5.23-8.61-10.91-13.02-16.29
	c-1.31-1.6-3.04-2.83-4.11-4.59c-2.95-4.86-7.32-8.62-10.3-13.46C342.98,340.19,342.54,339.78,341.9,339.78z"/>
<path class="st5" d="M545.75,310.01c0.51-0.57,1.18-0.28,1.76-0.29c14.83-0.02,29.65,0,44.48-0.05c1.43,0,1.88,0.3,1.88,1.83
	c-0.05,41.73-0.01,83.45-0.06,125.18c-0.01,10.67-1.03,21.23-4.89,31.31c-1.25,3.27-2.71,6.44-4.86,9.25
	c-0.65-0.42-1.65-0.59-0.48-1.69c1.03-0.97,0.37-2.1-0.52-2.78c-0.65-0.5-1.4-1.22-1.07-1.75c0.94-1.49-0.08-2.33-0.8-3.24
	c-2.03-2.55-4.16-5.03-6.19-7.57c-1.12-1.39-1.56-3.17-4.16-2.13c1.54-1.76,0.48-2.72-0.46-3.8c-0.66-0.75-1.58-1.15-2.18-2.01
	c-3.15-4.49-7.2-8.3-9.98-13.1c-1.3-2.24-3.43-3.86-4.95-5.9c-1.78-2.39-4.04-4.3-5.8-6.67c-0.24-0.33-0.62-0.51-0.98-0.29
	c-0.39,0.25-0.3,0.66-0.06,0.99c0.35,0.47,0.67,0.94,0.26,1.52c-0.7,0.99-0.74,1.92,0.07,2.89c0.3,0.36,0.22,0.88-0.08,1.23
	c-0.61,0.7-0.49,1.52-0.49,2.32c0,3.73,0,7.45,0,11.18c-0.12,0-0.24,0-0.37,0c0-0.61,0-1.22,0-1.84c0-44.05,0-88.1-0.01-132.14
	C545.8,311.63,545.77,310.82,545.75,310.01z"/>
<path class="st6" d="M235.99,223.79c-0.99,3.59-2.59,6.95-3.95,10.39c-3.56,9.04-7.23,18.03-10.84,27.05
	c-0.23,0.56-0.25,1.21-0.37,1.81c-0.54,0.1-0.55,0.55-0.71,0.95c-1.94,4.8-3.9,9.58-5.86,14.37c-0.12-0.46,0.04-1.06-0.6-1.25
	c-3.59-1.09-6.05-4.18-9.62-5.35c-2.02-0.66-3.7-1.99-5.36-3.31c-2.46-1.96-5.86-2.31-8.13-4.64c-0.33-0.34-0.81-0.29-1.25-0.27
	c-0.61,0.03-1.01-0.34-1.5-0.63c-1.96-1.15-3.76-2.56-5.7-3.7c-4.01-2.36-8.58-3.82-12.17-6.81c-2.46-2.05-5.99-1.7-8.16-4.67
	c-1.31-1.8-4.33-2.34-6.52-3.59c-2.63-1.5-5.71-2.22-8.05-4.26c-0.87-0.76-1.79-1.28-2.84-1.71c-1.9-0.77-3.88-1.49-5.54-2.63
	c-3.29-2.26-6.8-4.07-10.29-5.96c-1.13-0.61-2.59-0.96-3.38-2.18c2.41-6.14,4.79-12.3,7.23-18.43c4.6-11.58,9.24-23.15,13.87-34.72
	c0.18-0.45,0.44-0.88,0.66-1.32c1.68,1.69,3.89,2.62,5.89,3.8c3.09,1.82,6.66,2.85,9.48,5.14c1.5,1.22,2.22,3.66,4.89,2.63
	c2.76,1.95,6.25,2.87,8.25,5.89c0.2,0.3,0.53,0.68,0.91,0.54c1.55-0.6,2.59,0.39,3.76,1.08c3.47,2.03,6.99,3.96,10.44,6.03
	c2.7,1.62,5.39,3.22,8.25,4.58c2.84,1.34,5.2,3.66,8.44,4.24c0.29,0.05,0.61,0.22,0.8,0.43c1.48,1.65,3.42,2.62,5.34,3.62
	c0.22,0.11,0.56,0.14,0.66,0.31c1.07,1.99,3.2,2.29,4.97,3.18c2.64,1.33,5.52,2.24,7.84,4.1c1.27,1.02,2.3,2.12,4.09,2.05
	c0.45-0.02,1,0.49,1.38,0.88c0.86,0.85,1.72,1.63,3.04,1.61C235.79,223.01,235.92,223.4,235.99,223.79z"/>
<path class="st7" d="M235.99,223.79c-0.07-0.39-0.19-0.78-0.66-0.77c-1.32,0.02-2.18-0.76-3.04-1.61c-0.39-0.38-0.93-0.9-1.38-0.88
	c-1.8,0.07-2.83-1.03-4.09-2.05c-2.31-1.86-5.2-2.77-7.84-4.1c-1.77-0.89-3.89-1.19-4.97-3.18c-0.09-0.17-0.44-0.2-0.66-0.31
	c-1.92-1-3.85-1.97-5.34-3.62c-0.19-0.22-0.52-0.38-0.8-0.43c-3.24-0.57-5.6-2.89-8.44-4.24c-2.86-1.35-5.55-2.96-8.25-4.58
	c-3.45-2.07-6.97-4-10.44-6.03c-1.17-0.68-2.2-1.68-3.76-1.08c-0.38,0.15-0.72-0.24-0.91-0.54c-2-3.02-5.49-3.94-8.25-5.89
	c-2.67,1.03-3.4-1.42-4.89-2.63c-2.82-2.3-6.39-3.32-9.48-5.14c-2-1.18-4.21-2.11-5.89-3.8c0.31-0.84,0.63-1.69,0.94-2.53
	c1.22,0.06,0.87-0.6,0.57-1.24c0.1-0.93,0.57-1.72,0.95-2.55c0.07-0.13,0.14-0.25,0.21-0.38c1.56-4.59,3.42-9.05,5.37-13.49
	c36.49,0,72.99-0.01,109.48-0.01c0.05,0.12,0.09,0.24,0.14,0.36c-2.51,6.18-5.04,12.35-7.53,18.54
	c-4.89,12.15-9.77,24.31-14.63,36.47c-1.92,4.79-3.79,9.6-5.7,14.4C236.51,222.95,236.22,223.36,235.99,223.79z"/>
<path class="st5" d="M545.75,309.94c0.02,0.81,0.05,1.63,0.06,2.44c0,44.05,0,88.1,0.01,132.14c0,0.61,0,1.22,0,1.84
	c0.12,0,0.24,0,0.37,0c0-3.73,0-7.45,0-11.18c0-0.8-0.11-1.62,0.49-2.32c0.3-0.35,0.38-0.87,0.08-1.23
	c-0.81-0.97-0.78-1.9-0.07-2.89c0.42-0.58,0.09-1.05-0.26-1.52c-0.24-0.32-0.33-0.74,0.06-0.99c0.36-0.23,0.74-0.04,0.98,0.29
	c1.76,2.37,4.03,4.28,5.8,6.67c1.52,2.04,3.65,3.67,4.95,5.9c2.78,4.8,6.83,8.6,9.98,13.1c0.6,0.86,1.52,1.26,2.18,2.01
	c0.94,1.08,2.01,2.04,0.46,3.8c2.6-1.04,3.04,0.74,4.16,2.13c2.03,2.54,4.16,5.02,6.19,7.57c0.72,0.91,1.74,1.74,0.8,3.24
	c-0.33,0.53,0.42,1.24,1.07,1.75c0.89,0.69,1.55,1.81,0.52,2.78c-1.17,1.1-0.17,1.28,0.48,1.69c-0.74,1.46-1.75,2.72-2.91,3.87
	c-0.72-0.03-1.18,0.15-0.86,1c-4.81,5.53-10.83,9.23-17.66,11.66c-11.27,4-22.94,4.79-34.77,4.2c-8.24-0.41-16.28-1.77-23.85-5.2
	c-11.43-5.19-18.77-14.02-22.74-25.81c-3.42-10.16-4.12-20.67-4.11-31.28c0-1.03,0.4-1.24,1.33-1.24
	c13.64,0.02,27.28,0.03,40.93-0.01c1.17,0,1.31,0.48,1.3,1.45c-0.03,4.69-0.13,9.39,0.31,14.07c0.35,3.69,0.98,7.3,2.87,10.58
	c2.1,3.66,5.42,5.05,9.42,5.01c3.94-0.04,7.17-1.5,9.19-5.1c1.95-3.47,2.57-7.29,2.85-11.17c0.21-2.93,0.23-5.88,0.23-8.82
	c0.01-42.68,0-85.35,0.01-128.03C545.6,311.55,545.7,310.74,545.75,309.94z M549.25,435.43c0.74-0.03,1.04-0.44,1.02-1.09
	c-0.02-0.77-0.46-1.31-1.21-1.41c-0.69-0.09-0.99,0.42-0.98,1.06C548.1,434.77,548.58,435.21,549.25,435.43z M576.17,464.12
	c-0.09-0.49-0.4-0.8-0.88-0.79c-0.57,0.02-0.92,0.37-0.87,0.97c0.04,0.5,0.39,0.8,0.87,0.79
	C575.86,465.08,576.17,464.72,576.17,464.12z"/>
<path class="st8" d="M341.9,339.78c0.64,0,1.09,0.41,1.37,0.87c2.98,4.83,7.34,8.6,10.3,13.46c1.07,1.76,2.8,2.99,4.11,4.59
	c4.41,5.38,8.46,11.06,13.02,16.29c3.55,4.07,6.81,8.35,10.31,12.45c3.1,3.64,5.96,7.48,8.9,11.26c2.14,2.75,4.63,5.2,6.71,8
	c3.78,5.09,8.07,9.78,11.96,14.79c1.53,1.97,3.19,3.91,4.98,5.73c1.66,1.69,2.97,3.8,4.5,5.68c4.31,5.29,8.59,10.61,13.1,15.74
	c1.31,1.49,2.45,3.23,3.75,4.79c3.1,3.72,5.99,7.61,9.14,11.3c2.9,3.4,5.58,6.99,8.37,10.47c0.42,0.53,0.95,0.96,1.43,1.44
	c-0.13,0.42-0.36,0.75-0.76,0.96c-0.16,0.1-0.8-0.15-0.32,0.43c-1.56,2.56-3.84,4.44-6.08,6.31c-8.21,6.84-17.86,10.41-28.27,12.17
	c-1.23,0.21-2.46,0.36-3.69,0.53c-0.36-0.99,2.37-0.38,0.99-1.64c-2.22-2.03-3.21-4.96-5.41-6.96c-0.64-0.58-1.44-1.03-1.98-1.7
	c-3.04-3.78-5.86-7.75-9.07-11.37c-2.26-2.55-3.8-5.69-6.6-7.83c-0.81-0.62-2.08-1.78-1.24-3.34c8.18,2.8,15.23,0.99,19.23-5.04
	c2.65-4,3.46-8.49,3.18-13.22c-0.28-4.71-2.04-8.9-5.14-12.34c-2.57-2.87-5.9-4.91-9.3-6.75c-8.52-4.63-17.76-7.6-26.52-11.66
	c-8.41-3.9-16.34-8.52-22.57-15.57c-6.79-7.68-10.51-16.67-11.43-26.86c0-6.22-0.01-12.45-0.01-18.67c0.01-2.2,0.39-4.34,0.93-6.46
	c0.98-0.47,0.42-1.35,0.53-2.05c-0.04-0.61-0.02-1.21,0.39-1.71c0.04,0.11,0.04,0.27,0.11,0.33c0.2,0.15,0.29,0.03,0.28-0.18
	c-0.01-0.48-0.03-0.96-0.04-1.45c0.07-0.32,0.13-0.63,0.2-0.95c0.73-0.22,0.55-0.81,0.53-1.33
	C341.84,340.12,341.87,339.95,341.9,339.78z"/>
<path class="st4" d="M341.97,339.85c0.64,0,1.09,0.41,1.37,0.87c2.98,4.83,7.34,8.6,10.3,13.46c1.07,1.76,2.8,2.99,4.11,4.59
	c4.41,5.38,8.46,11.06,13.02,16.29c3.55,4.07,6.81,8.35,10.31,12.45c3.1,3.64,5.96,7.48,8.9,11.26c2.14,2.75,4.63,5.2,6.71,8
	c3.78,5.09,8.07,9.78,11.96,14.79c1.53,1.97,3.19,3.91,4.98,5.73c1.66,1.69,2.97,3.8,4.5,5.68c4.31,5.29,8.59,10.61,13.1,15.74
	c1.31,1.49,2.45,3.23,3.75,4.79c3.1,3.72,5.99,7.61,9.14,11.3c2.9,3.4,5.58,6.99,8.37,10.47c0.42,0.53,0.95,0.96,1.43,1.44
	c-0.13,0.42-0.36,0.75-0.76,0.96c-0.16,0.1-0.8-0.15-0.32,0.43c-1.56,2.56-3.84,4.44-6.08,6.31c-8.21,6.84-17.86,10.41-28.27,12.17
	c-1.23,0.21-2.46,0.36-3.69,0.53c-0.36-0.99,2.37-0.38,0.99-1.64c-2.22-2.03-3.21-4.96-5.41-6.96c-0.64-0.58-1.44-1.03-1.98-1.7
	c-3.04-3.78-5.86-7.75-9.07-11.37c-2.26-2.55-3.8-5.69-6.6-7.83c-0.81-0.62-2.08-1.78-1.24-3.34c8.18,2.8,15.23,0.99,19.23-5.04
	c2.65-4,3.46-8.49,3.18-13.22c-0.28-4.71-2.04-8.9-5.14-12.34c-2.57-2.87-5.9-4.91-9.3-6.75c-8.52-4.63-17.76-7.6-26.52-11.66
	c-8.41-3.9-16.34-8.52-22.57-15.57c-6.79-7.68-10.51-16.67-11.43-26.86c0-6.22-0.01-12.45-0.01-18.67c0.01-2.2,0.39-4.34,0.93-6.46
	c0.98-0.47,0.42-1.35,0.53-2.05c-0.04-0.61-0.02-1.21,0.39-1.71c0.04,0.11,0.04,0.27,0.11,0.33c0.2,0.15,0.29,0.03,0.28-0.18
	c-0.01-0.48-0.03-0.96-0.04-1.45c0.07-0.32,0.13-0.63,0.2-0.95c0.73-0.22,0.55-0.81,0.53-1.33
	C341.91,340.18,341.94,340.02,341.97,339.85z"/>
<path class="st4" d="M125.13,227.39c0.79,1.22,2.25,1.57,3.38,2.18c3.49,1.89,7,3.7,10.29,5.96c1.67,1.15,3.65,1.86,5.54,2.63
	c1.06,0.43,1.98,0.96,2.84,1.71c2.34,2.04,5.42,2.76,8.05,4.26c2.19,1.25,5.21,1.79,6.52,3.59c2.17,2.98,5.7,2.63,8.16,4.67
	c3.6,3,8.17,4.45,12.17,6.81c1.94,1.14,3.74,2.55,5.7,3.7c0.49,0.29,0.89,0.66,1.5,0.63c0.43-0.02,0.91-0.07,1.25,0.27
	c2.27,2.32,5.67,2.67,8.13,4.64c1.66,1.32,3.35,2.66,5.36,3.31c3.57,1.16,6.03,4.26,9.62,5.35c0.64,0.19,0.48,0.79,0.6,1.25
	c-0.04,0.36-0.05,0.73-0.39,0.97c-0.39,0.14-0.48,0.36-0.21,0.7c-0.19,0.41-0.38,0.82-0.57,1.23c-0.86,0-0.21,0.61-0.36,0.89
	c0.03,0.94-0.61,0.92-1.27,0.91c-2.37-0.03-4.75-0.05-7.12-0.08c0.04-0.38,0.06-0.85-0.37-0.92c-1.33-0.22-2.69-0.22-4.03-0.01
	c-0.43,0.07-0.37,0.57-0.4,0.93c-0.5,0.02-1,0.07-1.5,0.07c-31.09,0-62.19,0-93.28,0c-0.55,0-1.11,0-1.63,0
	c-0.27-0.8,0.17-1.33,0.39-1.89c4.38-11.02,8.76-22.04,13.21-33.03c1.54-3.79,2.81-7.68,4.65-11.35c0.85,0,0.21-0.6,0.36-0.89
	c0-0.36,0.02-0.71,0.36-0.94c0.4-0.13,0.49-0.36,0.21-0.7c0.19-0.41,0.38-0.83,0.57-1.24c0.85,0,0.22-0.6,0.37-0.89
	c0.17-1.04,0.57-1.99,1.13-2.87c0.84,0,0.23-0.6,0.37-0.89C124.74,228.01,124.78,227.64,125.13,227.39z M179.21,268.33
	c-0.29,0.22-0.41,0.31-0.54,0.41c0.09,0.12,0.16,0.31,0.28,0.35c0.23,0.07,0.49,0.02,0.48-0.3
	C179.42,268.63,179.29,268.49,179.21,268.33z M159.24,256.55c-0.05,0.1-0.15,0.23-0.12,0.31c0.03,0.07,0.19,0.1,0.3,0.14
	c0.05-0.1,0.15-0.23,0.12-0.3C159.5,256.62,159.34,256.6,159.24,256.55z"/>
<path class="st3" d="M113.9,392.34c-17.58,0-35.16,0-52.73,0c-2.09,0-2.08,0-1.29-1.98c3.43-8.58,6.89-17.15,10.27-25.75
	c0.52-1.33,1.1-1.89,2.67-1.89c35.22,0.06,70.44,0.04,105.66,0.05c2.2,0,2.2,0,1.36,2.1c-3.43,8.58-6.89,17.15-10.26,25.76
	c-0.51,1.31-1.13,1.76-2.56,1.76C149.3,392.32,131.6,392.34,113.9,392.34z"/>
<path class="st9" d="M136.06,337.66c-17.65,0-35.3,0-52.95,0c-2.17,0-2.17-0.01-1.39-1.98c3.46-8.64,6.94-17.27,10.34-25.94
	c0.46-1.18,1.01-1.58,2.29-1.57c35.43,0.04,70.85,0.04,106.28,0c1.49,0,1.81,0.2,1.2,1.7c-3.54,8.67-7.03,17.37-10.43,26.1
	c-0.53,1.35-1.19,1.73-2.58,1.72C171.23,337.64,153.65,337.66,136.06,337.66z"/>
<path class="st10" d="M16.38,499.78c1.24-4.32,3.21-8.36,4.81-12.54c1.76-4.61,3.69-9.15,5.46-13.75c0.43-1.12,0.97-1.49,2.16-1.49
	c35.47,0.03,70.94,0.02,106.41,0.02c0.94,0,1.94-0.27,1.26,1.4c-3.51,8.62-6.93,17.27-10.38,25.91c-0.07,0.17-0.21,0.31-0.32,0.46
	C89.31,499.78,52.84,499.78,16.38,499.78z"/>
<path class="st11" d="M266.76,343.54c0-3.26,0-6.51,0-9.77c0.4-0.05,0.69-0.2,0.72-0.66c0.03-0.52-0.2-0.8-0.72-0.84
	c-0.03-7.13-0.03-14.25-0.11-21.38c-0.01-1.28,0.69-1.2,1.54-1.19c6.63,0.01,13.26,0.01,19.88,0.01c8.38,0,16.76,0.01,25.14-0.02
	c1.09,0,1.65,0.09,1.65,1.46c-0.05,30.77-0.04,61.53-0.04,92.3c0,0.19-0.04,0.37-0.06,0.56c-0.67,0.03-1-0.21-1.07-0.95
	c-0.23-2.71-2.25-4.47-3.7-6.49c-1.37-1.9-3.36-3.41-4.49-5.42c-1.52-2.69-3.71-4.82-5.54-7.21c-1.78-2.33-4.33-4.1-6.05-6.62
	c-1.7-2.51-3.6-4.89-5.38-7.35c-0.25-0.34-0.33-0.94-0.88-0.64c-0.4,0.22-0.15,0.66,0.06,0.98c0.2,0.3,0.57,0.65,0.07,0.92
	c-0.41,0.22-0.68-0.15-0.87-0.49c-0.22-0.4-0.82-0.72-0.26-1.27c0.71-0.7,0.22-1.52-0.23-1.79c-1.97-1.21-2.59-3.4-3.93-5.02
	c-2.62-3.15-5.42-6.14-7.6-9.63c-2.17-3.48-6-5.58-7.79-9.38C267.08,343.56,266.88,343.57,266.76,343.54z"/>
<path class="st4" d="M391.42,464.21c-0.84,1.57,0.43,2.73,1.24,3.34c2.81,2.14,4.34,5.28,6.6,7.83c3.21,3.62,6.03,7.59,9.07,11.37
	c0.53,0.66,1.33,1.11,1.98,1.7c2.2,2,3.18,4.93,5.41,6.96c1.38,1.26-1.35,0.65-0.99,1.64c-0.47,0.04-0.94,0.08-1.41,0.12
	c-1.31-0.01-2.61-0.06-3.92-0.01c-0.88,0.03-1.91-0.37-2.55,0.66c-14.14,0.88-28.15,0.3-41.69-4.36
	c-15.34-5.27-24.48-16.03-27.76-31.86c-1.43-6.91-1.59-13.9-1.5-20.92c0-0.33-0.17-0.77,0.36-0.92c0.6,0.51,1.32,0.29,1.98,0.29
	c10.19,0.01,20.39,0.01,30.58,0.02c0.78,0,1.52-0.15,2.18,0.68c3.75,4.7,7.7,9.24,11.28,14.1c0.61,0.83,0.96,2.36,2.46,2.45
	c0,0-0.02-0.01-0.02-0.01c-0.03,0.35,0.02,0.66,0.42,0.78c0.11,0.22,0.21,0.44,0.32,0.66c-0.05,0.46,0.08,0.8,0.61,0.87
	c0.12,0.05,0.16,0.15,0.14,0.27c-0.02,0.59-0.13,1.24,0.82,1.14l-0.05,0.1c0,0,0.04-0.1,0.04-0.1c-0.1,0.59,0.16,0.84,0.74,0.77
	c0,0-0.01-0.01-0.01-0.01c-0.07,0.58,0.18,0.84,0.77,0.75c0,0-0.01-0.01-0.01-0.01c-0.08,0.92,0.55,0.83,1.14,0.81
	c0.13-0.02,0.23,0.02,0.29,0.13c0.09,0.72,0.64,0.64,1.14,0.64C391.19,464.13,391.31,464.17,391.42,464.21z"/>
<path class="st11" d="M265.31,497.54c-3.77,0.64-7.6,0.77-11.37,0.67c-5.23-0.14-10.48-0.41-15.66-1.39
	c-14.06-2.67-25.59-9.08-32.61-22.08c-3.61-6.68-5.45-13.93-6.48-21.4c-0.85-6.15-1.1-12.32-0.75-18.52c5.94,0,11.89-0.01,17.83,0
	c0.53,0,1.21-0.26,1.55,0.35c1.19,2.2,3.12,3.82,4.52,5.84c2.55,3.69,5.84,6.77,8.41,10.46c1.59,2.28,3.79,4.14,5.43,6.4
	c4,5.48,8.76,10.34,12.66,15.89c2.51,3.57,5.75,6.55,8.42,9.99c1.55,2,3,4.14,4.61,6.03c1.73,2.02,3.21,4.26,5.04,6.2
	c0.74,0.78,0.6,1.18-0.5,1.17c-0.98,0-1.96,0-2.93,0c0.01,0.14,0.01,0.27,0.02,0.41C264.09,497.54,264.7,497.54,265.31,497.54z"/>
<path class="st12" d="M141.69,446.81c-0.62,0.03-1.25,0.09-1.87,0.09c-33.46,0-66.92,0-100.39,0c-0.62,0-1.23,0-2.13,0
	c1.41-3.52,2.73-6.81,4.05-10.1c2.38-5.97,4.76-11.95,7.14-17.92c0.3-0.75,0.47-1.45,1.6-1.45c12.51,0.07,25.01,0.08,37.52,0.11
	c0.03,0.43-0.04,0.91,0.52,1.08c2.14,0.64,3.81,2.56,6.3,2.29c0.29-0.03,0.66,0.02,0.9,0.18c0.53,0.36,0.84,0.91,0.03,1.24
	c-0.65,0.26-1.48,0.3-1.26,1.25c0.2,0.86,0.7,1.54,1.65,1.88c1.53,0.56,3.1,0.24,4.64,0.34c0.29,1.34,0.08,3.16,2.45,2.42
	c0.36-0.11,0.44,0.28,0.55,0.59c0.55,1.57,3.74,3.22,5.09,2.42c1.61-0.95,2.64-0.37,3.47,0.89c0.62,0.94,1.23,0.91,2.02,0.37
	c0.37-0.25,0.68-0.99,1.2-0.43c0.54,0.58-0.15,0.98-0.48,1.4c-0.32,0.41-1.1,0.82-0.47,1.36c0.7,0.6,1,1.43,1.58,2.06
	c1.12,1.21,2.71,1.17,3.36-0.07c0.41-0.77,0.81-1.48,1.84-1.04c1.11,0.47,1.02,1.51,0.6,2.22c-0.83,1.4-0.27,2.23,0.95,2.59
	c1.34,0.39,0.94-0.86,1.13-1.56c0.31-1.13,1.37-1.47,2.29-1.5c1.23-0.04,0.95,0.86,0.81,1.75c-0.17,1.08,0.6,0.61,1.06,0.39
	c0.79-0.36,1.68-0.67,2.1,0.32c0.52,1.23,1.54,1.58,2.62,1.87c0.79,0.21,1.23,0.71,1.69,1.35c1.12,1.57,2.46,2.66,4.67,2.28
	C139.95,445.29,141.2,445.5,141.69,446.81z M128.1,441.2c-0.66-0.03-1.14,0.19-1.01,0.82c0.28,1.3,1.28,1.89,2.49,2.13
	c0.48,0.1,1-0.22,0.74-0.72C129.8,442.47,129.59,441.09,128.1,441.2z M85.59,418.56c-0.1-0.04-0.23-0.15-0.31-0.12
	c-0.07,0.03-0.1,0.19-0.14,0.29c0.1,0.04,0.23,0.15,0.31,0.12C85.53,418.82,85.55,418.66,85.59,418.56z"/>
<path class="st1" d="M233.89,555.64c0.64,0.3,0.84,0.42,1.05,0.48c5.33,1.53,7.6,5.28,7.79,10.59c0.18,4.94,0.45,9.87,0.64,14.81
	c0.13,3.43,0.78,6.69,3.32,9.65c-4.98,0-9.65,0-14.32,0.01c-0.64,0-0.87-0.34-0.95-0.91c-0.23-1.54-0.63-3.07-0.7-4.62
	c-0.21-4.62-0.29-9.25-0.44-13.88c-0.03-1.06-0.07-2.13-0.22-3.18c-0.65-4.52-2.61-6.53-7.09-7.13c-2.92-0.39-5.87-0.33-8.81-0.38
	c-1.37-0.02-1.11,0.83-1.11,1.6c0,8.88-0.03,17.77,0.03,26.65c0.01,1.4-0.26,1.95-1.8,1.88c-3.06-0.13-6.13-0.07-9.19-0.02
	c-1.03,0.02-1.39-0.25-1.39-1.35c0.03-21.96,0.02-43.92,0.02-65.88c0-0.75-0.02-1.32,1.04-1.3c8.94,0.2,17.9-0.46,26.82,0.36
	c9.11,0.84,13.55,5.35,14.44,14.48c0.3,3.12,0.18,6.25-0.57,9.32C241.34,551.24,238.94,554.4,233.89,555.64z M213.05,541.95
	c0,2.81,0.01,5.63-0.01,8.44c-0.01,0.75-0.02,1.3,1.04,1.27c2.87-0.09,5.76,0.05,8.62-0.12c4.02-0.24,6.2-1.92,7.05-5.3
	c0.63-2.51,0.7-5.05,0.29-7.63c-0.51-3.22-2.28-5.17-5.47-5.85c-3.53-0.76-7.1-0.41-10.65-0.51c-1.01-0.03-0.87,0.64-0.87,1.25
	C213.05,536.32,213.05,539.14,213.05,541.95z"/>
<path class="st11" d="M312.85,457.68c-1.4,7.62-4.1,14.72-8.68,21.02c-1.18,1.62-2.62,3.05-3.94,4.57c-0.53,0-0.79,0.25-0.76,0.78
	c0,0,0.02-0.02,0.02-0.02c-1.75,0.22-3.22-0.26-4.22-1.77c-0.99-1.51-2.28-2.8-3.41-4.18c-1.34-1.62-2.33-3.54-3.82-4.95
	c-2.23-2.11-4.23-4.44-5.97-6.88c-3.18-4.47-6.85-8.5-10.28-12.74c-2.06-2.55-4.41-4.98-4.29-8.63c0.01-0.45-0.31-0.64-0.73-0.69
	c-0.03-10.04-0.07-20.08-0.07-30.11c0-5.11,0.05-10.22,0.08-15.33c0.32,0.05,0.65,0.15,0.69,0.52c0.1,0.98-0.13,2.12,0.69,2.84
	c2.09,1.85,2.58,5.12,5.56,6.15c0.2,0.07,0.45,0.34,0.47,0.54c0.2,1.68,1.66,2.39,2.58,3.52c2.3,2.81,4.88,5.4,6.82,8.48
	c0.97,1.55,2.33,2.75,3.34,4.22c1.5,2.19,3.95,3.69,4.7,6.42c0.42,1.52,2.22,0.77,3,1.91c0.47,0.69,0.6-0.45,0.98-0.64
	c0.25-0.12,0.5-0.13,0.66,0.1c0.24,0.33,0.29,0.8-0.04,1.01c-1.71,1.08-0.49,1.79,0.3,2.5c0.91,0.82,1.79,1.72,3.24,1.56
	c0.45-0.05,0.99,0.24,1.13,0.82c0.09,0.39,0.03,0.78-0.43,0.9c-1.5,0.41-0.95,0.83-0.01,1.23c0.53,0.22,0.42,0.68,0.52,1.09
	c0.5,1.9,1.67,2.8,3.61,2.73c0.56-0.02,0.9,0.16,0.85,0.7c-0.36,4.24,3.59,6.05,5.27,9.15C311.24,455.53,312.6,456.26,312.85,457.68
	z"/>
<path class="st11" d="M266.75,444.2c0.42,0.05,0.74,0.23,0.73,0.69c-0.11,3.65,2.23,6.07,4.29,8.63c3.43,4.24,7.1,8.27,10.28,12.74
	c1.74,2.44,3.74,4.77,5.97,6.88c1.49,1.41,2.49,3.33,3.82,4.95c1.14,1.38,2.42,2.66,3.41,4.18c0.99,1.51,2.47,2,4.22,1.77
	c-3.86,4.04-8.54,6.83-13.66,8.9c-6.58,2.66-13.41,4.24-20.5,4.61c-0.61,0-1.22,0-1.84,0c-0.01-0.14-0.01-0.27-0.02-0.41
	c0.98,0,1.96,0,2.93,0c1.1,0,1.24-0.39,0.5-1.17c-1.83-1.93-3.31-4.17-5.04-6.2c-1.61-1.88-3.06-4.03-4.61-6.03
	c-2.67-3.44-5.9-6.42-8.42-9.99c-3.9-5.55-8.66-10.41-12.66-15.89c-1.64-2.26-3.84-4.11-5.43-6.4c-2.57-3.69-5.86-6.77-8.41-10.46
	c-1.4-2.02-3.34-3.64-4.52-5.84c-0.33-0.62-1.02-0.35-1.55-0.35c-5.94-0.01-11.89,0-17.83,0c0.37-0.68,1.01-0.35,1.51-0.35
	c13.32-0.02,26.65,0.01,39.97-0.05c1.49-0.01,1.88,0.41,1.88,1.89c0,5.93-0.26,11.89,0.86,17.77c0.29,1.54,0.7,3.04,1.3,4.49
	c2.72,6.56,10.02,9.04,16.17,5.47c2.98-1.73,4.2-4.67,5.13-7.77C266.43,452.33,266.36,448.23,266.75,444.2z"/>
<path class="st11" d="M312.85,457.68c-0.24-1.42-1.61-2.15-2.17-3.18c-1.68-3.09-5.63-4.91-5.27-9.15c0.05-0.54-0.29-0.72-0.85-0.7
	c-1.94,0.07-3.11-0.82-3.61-2.73c-0.11-0.41,0.01-0.87-0.52-1.09c-0.94-0.4-1.5-0.82,0.01-1.23c0.45-0.12,0.52-0.51,0.43-0.9
	c-0.14-0.58-0.68-0.87-1.13-0.82c-1.45,0.16-2.32-0.74-3.24-1.56c-0.79-0.71-2.01-1.42-0.3-2.5c0.33-0.21,0.28-0.68,0.04-1.01
	c-0.16-0.23-0.41-0.22-0.66-0.1c-0.37,0.19-0.51,1.32-0.98,0.64c-0.77-1.14-2.58-0.39-3-1.91c-0.75-2.72-3.2-4.22-4.7-6.42
	c-1-1.47-2.37-2.67-3.34-4.22c-1.94-3.08-4.52-5.67-6.82-8.48c-0.92-1.13-2.38-1.85-2.58-3.52c-0.02-0.2-0.27-0.47-0.47-0.54
	c-2.98-1.03-3.47-4.31-5.56-6.15c-0.81-0.72-0.59-1.86-0.69-2.84c-0.04-0.37-0.37-0.46-0.69-0.52c0-0.88,0-1.76,0-2.63
	c0.4-0.04,0.69-0.2,0.72-0.66c0.03-0.52-0.2-0.8-0.72-0.84c0-8.64,0-17.27,0-25.91c2.02,0.49,3.16,2.26,4.12,3.69
	c1.55,2.32,3.93,4.05,4.92,6.77c0.11,0.29,0.53,0.52,0.85,0.67c2.84,1.34,4.06,4.29,5.96,6.46c2.16,2.46,4.32,5.05,6.23,7.76
	c1.19,1.7,3.15,2.79,3.98,4.57c0.92,1.97,2.97,3.01,3.58,5.11c0.07,0.24,0.46,0.54,0.71,0.54c1.12,0.03,1.35,0.91,1.79,1.66
	c1.72,2.92,3.46,5.84,6.33,7.84c0.63,0.44,0.88,1.19,1.3,1.8c1.27,1.85,2.49,3.79,4.06,5.36c0.87,0.87,1.92,1.53,2.42,2.73
	c0.32,0.76,0.69,1.51,1.74,1.37c-0.01,4.64-0.02,9.28-0.03,13.92c-0.59,2.05-0.12,4.16-0.3,6.23c0.17,1.7-0.22,3.36-0.42,5.03
	c-0.53,0.58-0.24,1.28-0.28,1.93c-0.05,0.48-0.1,0.97-0.15,1.45c-0.56,0.12-0.77,0.34-0.2,0.75c-0.04,0.38-0.08,0.75-0.12,1.13
	c-0.4,0.34-0.29,0.8-0.27,1.23C312.94,457.03,312.89,457.35,312.85,457.68z"/>
<path class="st1" d="M310.85,565.56c-0.06,4.88-0.15,9.76-1.24,14.55c-1.8,7.9-6.03,11.65-14.11,12.35
	c-2.75,0.24-5.5,0.15-8.22-0.36c-6-1.12-9.72-4.83-11.04-10.63c-2.41-10.56-2.4-21.22-0.04-31.79c1.45-6.48,5.68-10.23,12.36-11.04
	c3.37-0.41,6.74-0.4,10.08,0.3c6.37,1.34,9.54,5.71,10.93,11.7C310.71,555.55,310.81,560.55,310.85,565.56z M286.75,565.58
	c0.19,4.27-0.11,8.79,0.68,13.25c0.57,3.17,2.18,4.61,5.15,4.64c3.1,0.03,4.69-1.25,5.38-4.35c0.16-0.73,0.3-1.47,0.37-2.21
	c0.55-6.06,0.3-12.13,0.27-18.19c-0.01-2.25-0.13-4.5-0.63-6.71c-0.72-3.14-2.31-4.49-5.32-4.46c-3.03,0.03-4.64,1.34-5.25,4.52
	C286.56,556.46,286.88,560.92,286.75,565.58z"/>
<path class="st1" d="M376.1,565.5c0.04,4.82-0.15,9.62-1.15,14.36c-1.69,8.01-6.14,11.98-14.29,12.61c-2.62,0.2-5.25,0.12-7.85-0.33
	c-6-1.04-9.85-4.62-11.22-10.43c-2.49-10.55-2.43-21.21-0.16-31.79c1.45-6.76,5.82-10.57,12.73-11.32c3.24-0.35,6.5-0.35,9.71,0.33
	c6.55,1.37,9.71,5.89,11.06,12.03C375.96,555.74,376.15,560.61,376.1,565.5z M352.13,565.18c0,2.31-0.03,4.63,0.01,6.94
	c0.04,2.31,0.14,4.62,0.61,6.9c0.61,3.02,2.21,4.43,5.12,4.45c3.1,0.02,4.72-1.29,5.41-4.35c0.62-2.77,0.62-5.59,0.63-8.4
	c0.03-6.25,0.42-12.52-0.66-18.72c-0.53-3.04-2.24-4.4-5.13-4.45c-3.06-0.05-4.72,1.24-5.38,4.35
	C351.79,556.28,352.16,560.75,352.13,565.18z"/>
<path class="st1" d="M508.93,544.19c3.48-4.79,8.04-6.59,13.67-5.53c5.3,1,8.36,4.78,8.53,10.56c0.15,5,0.07,10.01,0.07,15.01
	c0.01,8.45-0.03,16.89,0.03,25.34c0.01,1.32-0.35,1.69-1.66,1.64c-2.69-0.1-5.38-0.11-8.07,0c-1.38,0.06-1.78-0.3-1.78-1.73
	c0.07-10.63,0.04-21.27,0.03-31.91c0-1.88-0.04-3.76-0.51-5.59c-0.56-2.18-1.72-3.22-3.69-3.42c-2.6-0.27-4.35,0.56-5.31,2.6
	c-0.7,1.5-0.94,3.11-0.95,4.75c-0.06,11.07-0.12,22.14-0.1,33.22c0,1.59-0.29,2.2-2.03,2.1c-2.81-0.17-5.63-0.09-8.44-0.02
	c-1.08,0.03-1.51-0.18-1.51-1.41c0.04-16.2,0.04-32.41,0.01-48.61c0-1.12,0.26-1.54,1.45-1.5c2.88,0.08,5.76,0.1,8.63,0
	c1.37-0.05,1.75,0.44,1.63,1.71C508.86,542.31,508.93,543.25,508.93,544.19z"/>
<path class="st13" d="M141.69,446.81c-0.49-1.31-1.73-1.52-2.75-1.34c-2.21,0.39-3.55-0.7-4.67-2.28c-0.46-0.64-0.9-1.14-1.69-1.35
	c-1.08-0.29-2.1-0.64-2.62-1.87c-0.42-0.99-1.31-0.69-2.1-0.32c-0.47,0.21-1.23,0.69-1.06-0.39c0.14-0.89,0.41-1.79-0.81-1.75
	c-0.92,0.03-1.98,0.37-2.29,1.5c-0.19,0.7,0.2,1.94-1.13,1.56c-1.23-0.36-1.78-1.19-0.95-2.59c0.42-0.71,0.51-1.75-0.6-2.22
	c-1.03-0.44-1.44,0.27-1.84,1.04c-0.65,1.24-2.24,1.27-3.36,0.07c-0.58-0.63-0.88-1.46-1.58-2.06c-0.63-0.54,0.15-0.95,0.47-1.36
	c0.33-0.42,1.02-0.82,0.48-1.4c-0.52-0.56-0.83,0.18-1.2,0.43c-0.79,0.54-1.4,0.56-2.02-0.37c-0.84-1.26-1.86-1.84-3.47-0.89
	c-1.35,0.8-4.54-0.85-5.09-2.42c-0.11-0.31-0.19-0.7-0.55-0.59c-2.37,0.75-2.16-1.08-2.33-2.71c0.05-0.16-0.08-0.02-0.09,0.12
	c-0.04,0.39,0.21,0.03,0.3,0.1c0.08-0.13,0.16-0.26,0.24-0.39c-0.1-0.04-0.19-0.08-0.45,0.16c-1.67,0.19-3.23,0.51-4.76-0.05
	c-0.94-0.34-1.45-1.02-1.65-1.88c-0.22-0.95,0.61-0.99,1.26-1.25c0.81-0.33,0.5-0.88-0.03-1.24c-0.23-0.16-0.6-0.21-0.9-0.18
	c-2.48,0.28-4.15-1.65-6.3-2.29c-0.56-0.17-0.49-0.65-0.52-1.08c0.44-0.03,0.87-0.08,1.31-0.08c22.65-0.01,45.3-0.01,67.94-0.01
	c0.55,0,1.1,0,1.75,0c-0.27,1.61-0.97,2.87-1.49,4.19c-3.11,7.83-6.29,15.64-9.33,23.51c-0.56,1.44-1.28,1.94-2.74,1.77
	C143.94,446.79,142.81,446.84,141.69,446.81z"/>
<path class="st11" d="M314.75,425.03c-1.05,0.14-1.42-0.61-1.74-1.37c-0.5-1.2-1.55-1.85-2.42-2.73c-1.57-1.58-2.79-3.51-4.06-5.36
	c-0.42-0.61-0.67-1.36-1.3-1.8c-2.87-2.01-4.61-4.92-6.33-7.84c-0.44-0.74-0.66-1.63-1.79-1.66c-0.25-0.01-0.64-0.3-0.71-0.54
	c-0.61-2.1-2.66-3.14-3.58-5.11c-0.83-1.77-2.79-2.87-3.98-4.57c-1.91-2.71-4.07-5.3-6.23-7.76c-1.91-2.17-3.13-5.12-5.96-6.46
	c-0.32-0.15-0.75-0.38-0.85-0.67c-0.99-2.72-3.36-4.45-4.92-6.77c-0.96-1.43-2.1-3.2-4.12-3.69c0-8.39,0-16.78,0-25.17
	c0.12,0.03,0.32,0.03,0.35,0.1c1.79,3.8,5.63,5.9,7.79,9.38c2.18,3.5,4.98,6.48,7.6,9.63c1.34,1.61,1.96,3.81,3.93,5.02
	c0.45,0.28,0.94,1.09,0.23,1.79c-0.56,0.55,0.04,0.88,0.26,1.27c0.19,0.34,0.46,0.71,0.87,0.49c0.5-0.27,0.13-0.62-0.07-0.92
	c-0.21-0.32-0.46-0.76-0.06-0.98c0.55-0.3,0.63,0.3,0.88,0.64c1.78,2.46,3.68,4.84,5.38,7.35c1.71,2.52,4.26,4.29,6.05,6.62
	c1.83,2.39,4.02,4.52,5.54,7.21c1.13,2.01,3.12,3.52,4.49,5.42c1.46,2.02,3.47,3.78,3.7,6.49c0.06,0.75,0.4,0.99,1.07,0.95
	c0,4.88,0,9.77,0,14.65c-0.24,0.03-0.52,0.06-0.52,0.37c0,0.3,0.28,0.34,0.52,0.37C314.76,421.28,314.76,423.16,314.75,425.03z"/>
<path class="st1" d="M407.79,569.84c0-6.5-0.04-13.01,0.03-19.51c0.01-1.34-0.23-1.84-1.71-1.79c-2.99,0.11-2.99,0.01-2.99-3.03
	c0-1.44,0.06-2.88-0.02-4.31c-0.06-1.1,0.21-1.53,1.43-1.53c3.27-0.01,3.26-0.07,3.27-3.35c0.01-2.37-0.01-4.75,0.55-7.09
	c0.9-3.73,3.29-5.93,7.07-6.55c2.75-0.45,5.49-0.21,8.23-0.05c0.78,0.04,0.91,0.39,0.9,1.05c-0.03,2.25-0.04,4.5,0,6.75
	c0.02,0.86-0.19,1.14-1.14,1.17c-2.88,0.09-3.62,0.91-3.71,3.75c-0.01,0.25,0,0.5,0,0.75c-0.01,3.49-0.01,3.53,3.44,3.58
	c1,0.01,1.47,0.19,1.42,1.33c-0.09,2.12-0.08,4.25,0,6.38c0.04,1.06-0.4,1.2-1.31,1.21c-3.55,0.07-3.55,0.1-3.55,3.62
	c0,12.38-0.03,24.77,0.04,37.15c0.01,1.49-0.4,1.9-1.86,1.84c-2.81-0.12-5.63-0.1-8.44,0c-1.31,0.04-1.69-0.35-1.68-1.67
	C407.82,582.97,407.79,576.41,407.79,569.84z"/>
<path class="st1" d="M453.39,565.51c0-8.01,0.03-16.02-0.03-24.02c-0.01-1.32,0.19-1.89,1.7-1.82c2.87,0.14,5.75,0.08,8.63,0.02
	c1.06-0.02,1.56,0.15,1.56,1.4c-0.04,16.27-0.03,32.53-0.01,48.8c0,0.94-0.23,1.33-1.26,1.31c-3.06-0.06-6.13-0.08-9.2,0.01
	c-1.21,0.04-1.43-0.38-1.42-1.49C453.41,581.65,453.39,573.58,453.39,565.51z"/>
<path class="st1" d="M458.93,533.34c-1.58-0.16-4.13,0.83-5.22-0.37c-0.95-1.05-0.31-3.55-0.32-5.41c-0.01-1.55-0.53-3.62,0.26-4.51
	c0.92-1.05,3.04-0.28,4.64-0.34c1.87-0.06,3.74,0.02,5.62-0.03c0.9-0.03,1.36,0.13,1.33,1.2c-0.07,2.74-0.06,5.49,0,8.24
	c0.02,1.02-0.36,1.28-1.31,1.24C462.37,533.3,460.81,533.34,458.93,533.34z"/>
<path class="st4" d="M384.75,457.28c-1.51-0.09-1.85-1.61-2.46-2.45c-3.58-4.85-7.53-9.39-11.28-14.1c-0.65-0.82-1.4-0.67-2.18-0.68
	c-10.19-0.01-20.39,0-30.58-0.02c-0.66,0-1.38,0.22-1.98-0.29c3.68-0.03,7.36-0.09,11.05-0.09c10.99-0.01,21.99,0.04,32.98-0.05
	c1.75-0.01,2.34,0.32,2.28,2.2C382.39,447.08,382.82,452.3,384.75,457.28z"/>
<path class="st14" d="M16.38,499.78c36.47,0,72.93,0,109.4,0c-0.51,0.56-1.18,0.28-1.77,0.28c-35.29,0.02-70.59,0.01-105.88,0
	C17.55,500.06,16.88,500.37,16.38,499.78z"/>
<path class="st3" d="M338.87,354.09c0,6.22,0.01,12.45,0.01,18.67C337.95,366.54,338.04,360.31,338.87,354.09z"/>
<path class="st6" d="M199.53,282.99c0.03-0.36-0.03-0.86,0.4-0.93c1.34-0.21,2.69-0.21,4.03,0.01c0.43,0.07,0.41,0.55,0.37,0.92
	C202.73,282.99,201.13,282.99,199.53,282.99z"/>
<path class="st8" d="M406.85,497.82c0.63-1.03,1.66-0.63,2.55-0.66c1.3-0.05,2.61,0,3.92,0.01
	C411.19,497.65,409.03,497.8,406.85,497.82z"/>
<path class="st10" d="M314.43,445.19c0.18-2.07-0.29-4.17,0.3-6.23C314.84,441.04,314.81,443.12,314.43,445.19z"/>
<path class="st12" d="M266.76,394.62c0.52,0.04,0.75,0.32,0.72,0.84c-0.03,0.45-0.32,0.61-0.72,0.66
	C266.76,395.62,266.76,395.12,266.76,394.62z"/>
<path class="st3" d="M266.76,332.27c0.52,0.04,0.75,0.32,0.72,0.84c-0.03,0.46-0.32,0.61-0.72,0.66
	C266.76,333.27,266.76,332.77,266.76,332.27z"/>
<path class="st5" d="M580.3,482.11c-0.32-0.85,0.14-1.04,0.86-1C581.02,481.57,580.7,481.88,580.3,482.11z"/>
<path class="st6" d="M148.4,169.15c0.31,0.64,0.65,1.3-0.57,1.24C148.02,169.98,148.21,169.57,148.4,169.15z"/>
<path class="st8" d="M387.04,461c-0.94,0.1-0.84-0.55-0.82-1.14C386.62,460.15,386.89,460.53,387.04,461z"/>
<path class="st4" d="M340.33,345.58c-0.12,0.7,0.45,1.58-0.53,2.05C339.93,346.94,339.83,346.18,340.33,345.58z"/>
<path class="st4" d="M341.08,342.57c0.01,0.48,0.03,0.96,0.04,1.45c0,0.21-0.08,0.33-0.28,0.18c-0.08-0.06-0.08-0.22-0.11-0.33
	C340.7,343.39,340.67,342.92,341.08,342.57z"/>
<path class="st8" d="M389.65,463.31c-0.59,0.02-1.22,0.1-1.14-0.81C388.99,462.63,389.36,462.92,389.65,463.31z"/>
<path class="st12" d="M313.72,452.14c0.05-0.65-0.24-1.35,0.28-1.93C314.04,450.88,314.09,451.54,313.72,452.14z"/>
<path class="st8" d="M391.08,464.09c-0.5,0-1.05,0.08-1.14-0.64C390.32,463.66,390.7,463.88,391.08,464.09z"/>
<path class="st12" d="M313.37,454.35c-0.57-0.42-0.36-0.63,0.2-0.75C313.5,453.84,313.44,454.1,313.37,454.35z"/>
<path class="st10" d="M314.76,419.4c-0.24-0.04-0.52-0.07-0.52-0.37c0-0.3,0.28-0.34,0.52-0.37
	C314.76,418.9,314.76,419.15,314.76,419.4z"/>
<path class="st10" d="M299.46,484.05c-0.03-0.54,0.24-0.79,0.76-0.78C299.97,483.53,299.72,483.79,299.46,484.05z"/>
<path class="st6" d="M212.72,282.16c0.16-0.28-0.5-0.9,0.36-0.89C213.08,281.61,213.05,281.94,212.72,282.16z"/>
<path class="st6" d="M124.74,228.4c-0.14,0.29,0.47,0.89-0.37,0.89C124.38,228.94,124.41,228.61,124.74,228.4z"/>
<path class="st8" d="M387.77,461.77c-0.59,0.07-0.84-0.19-0.74-0.77C387.4,461.13,387.65,461.39,387.77,461.77z"/>
<path class="st12" d="M312.99,456.7c-0.02-0.43-0.13-0.89,0.27-1.23C313.3,455.91,313.3,456.34,312.99,456.7z"/>
<path class="st8" d="M386.08,459.59c-0.52-0.06-0.65-0.4-0.61-0.87C385.67,459.01,385.88,459.3,386.08,459.59z"/>
<path class="st6" d="M121.74,235.91c-0.15,0.28,0.49,0.89-0.36,0.89C121.38,236.46,121.41,236.13,121.74,235.91z"/>
<path class="st8" d="M388.53,462.51c-0.58,0.08-0.83-0.17-0.77-0.75C388.12,461.9,388.38,462.15,388.53,462.51z"/>
<path class="st6" d="M123.24,232.16c-0.15,0.29,0.48,0.89-0.37,0.89C122.88,232.7,122.91,232.37,123.24,232.16z"/>
<path class="st4" d="M341.81,340.29c0.02,0.52,0.2,1.11-0.53,1.33C341.42,341.16,341.38,340.63,341.81,340.29z"/>
<path class="st4" d="M452.77,478.04c-0.47-0.58,0.16-0.33,0.32-0.43C452.99,477.75,452.88,477.89,452.77,478.04z"/>
<path class="st8" d="M385.15,458.06c-0.4-0.12-0.45-0.43-0.42-0.78C385.06,457.43,385.1,457.75,385.15,458.06z"/>
<path class="st6" d="M213.65,280.03c-0.27-0.33-0.18-0.56,0.21-0.7C213.79,279.57,213.72,279.8,213.65,280.03z"/>
<path class="st6" d="M122.3,234.28c0.28,0.34,0.19,0.56-0.21,0.7C122.16,234.75,122.23,234.51,122.3,234.28z"/>
<path class="st6" d="M149.56,166.23c-0.07,0.13-0.14,0.25-0.21,0.38C149.42,166.48,149.49,166.35,149.56,166.23z"/>
<path class="st2" d="M585.51,564.68c-0.21,4.05-0.01,8.13-0.7,12.15c-0.67,3.89-2.4,5.67-5.54,5.66c-2.21-0.01-3.49-0.86-4.28-2.95
	c-0.27-0.69-0.5-1.43-0.58-2.16c-0.82-7.98-0.89-15.98,0.06-23.94c0.49-4.04,2.36-5.53,5.71-5.19c2.54,0.26,4.08,1.79,4.67,4.85
	C585.59,556.92,585.5,560.81,585.51,564.68z"/>
<path class="st5" d="M549.25,435.5c-0.67-0.23-1.16-0.66-1.17-1.44c-0.01-0.64,0.29-1.15,0.98-1.06c0.75,0.1,1.19,0.64,1.21,1.41
	C550.29,435.06,549.99,435.47,549.25,435.5z"/>
<path class="st5" d="M576.17,464.19c0,0.6-0.31,0.96-0.89,0.97c-0.48,0.01-0.83-0.29-0.87-0.79c-0.05-0.6,0.3-0.95,0.87-0.97
	C575.77,463.39,576.07,463.7,576.17,464.19z"/>
<path class="st6" d="M179.21,268.33c0.08,0.16,0.21,0.3,0.22,0.45c0.01,0.32-0.25,0.37-0.48,0.3c-0.12-0.04-0.19-0.23-0.28-0.35
	C178.79,268.64,178.92,268.54,179.21,268.33z"/>
<path class="st6" d="M159.24,256.55c0.1,0.05,0.26,0.07,0.3,0.14c0.03,0.07-0.07,0.2-0.12,0.3c-0.1-0.05-0.27-0.07-0.3-0.14
	C159.09,256.78,159.19,256.66,159.24,256.55z"/>
<path class="st13" d="M128.1,441.2c1.49-0.11,1.71,1.27,2.21,2.23c0.26,0.5-0.26,0.81-0.74,0.72c-1.21-0.24-2.21-0.83-2.49-2.13
	C126.95,441.4,127.43,441.17,128.1,441.2z"/>
<path class="st13" d="M85.59,418.56c-0.05,0.1-0.07,0.27-0.14,0.29c-0.07,0.03-0.2-0.07-0.31-0.12c0.04-0.1,0.07-0.27,0.14-0.29
	C85.36,418.41,85.49,418.51,85.59,418.56z"/>
<path class="st2" d="M213.05,541.95c0-2.81,0-5.63,0-8.44c0-0.62-0.14-1.28,0.87-1.25c3.55,0.1,7.13-0.25,10.65,0.51
	c3.19,0.69,4.96,2.63,5.47,5.85c0.41,2.57,0.34,5.12-0.29,7.63c-0.85,3.38-3.03,5.06-7.05,5.3c-2.87,0.17-5.75,0.03-8.62,0.12
	c-1.06,0.03-1.05-0.51-1.04-1.27C213.06,547.58,213.05,544.76,213.05,541.95z"/>
<path class="st2" d="M286.75,565.58c0.13-4.66-0.19-9.12,0.65-13.51c0.61-3.18,2.22-4.49,5.25-4.52c3-0.03,4.6,1.32,5.32,4.46
	c0.51,2.21,0.62,4.46,0.63,6.71c0.04,6.07,0.28,12.14-0.27,18.19c-0.07,0.74-0.2,1.48-0.37,2.21c-0.69,3.1-2.28,4.38-5.38,4.35
	c-2.97-0.03-4.58-1.46-5.15-4.64C286.64,574.37,286.94,569.85,286.75,565.58z"/>
<path class="st2" d="M352.13,565.18c0.03-4.43-0.34-8.89,0.59-13.28c0.66-3.11,2.32-4.4,5.38-4.35c2.9,0.05,4.6,1.41,5.13,4.45
	c1.08,6.2,0.69,12.47,0.66,18.72c-0.01,2.81-0.01,5.63-0.63,8.4c-0.69,3.06-2.3,4.37-5.41,4.35c-2.91-0.02-4.5-1.43-5.12-4.45
	c-0.46-2.28-0.57-4.59-0.61-6.9C352.1,569.81,352.13,567.49,352.13,565.18z"/>
<path class="st12" d="M100.62,425.2c0.13,0.06,0.23,0.1,0.33,0.14c-0.08,0.13-0.16,0.26-0.24,0.39c-0.09-0.07-0.35,0.29-0.3-0.1
	C100.42,425.47,100.55,425.34,100.62,425.2z"/>
</svg>
